<?xml version="1.0" standalone="no"?>
<!DOCTYPE svg PUBLIC "-//W3C//DTD SVG 20010904//EN"
 "http://www.w3.org/TR/2001/REC-SVG-20010904/DTD/svg10.dtd">
<svg version="1.0" xmlns="http://www.w3.org/2000/svg"
 width="383.000000pt" height="383.000000pt" viewBox="0 0 383.000000 383.000000"
 preserveAspectRatio="xMidYMid meet">

<g transform="translate(0.000000,383.000000) scale(0.100000,-0.100000)"
fill="#000000" stroke="none">
<path d="M847 3336 c-59 -22 -103 -62 -130 -118 -22 -46 -28 -82 -42 -258 -37
-437 -52 -563 -75 -627 l-23 -63 -83 0 c-105 0 -124 14 -124 89 0 48 0 49 37
56 52 10 71 21 93 58 18 30 20 52 20 292 0 243 -1 262 -20 293 -31 51 -75 64
-201 60 -90 -2 -112 -6 -136 -24 -52 -39 -53 -47 -51 -342 l3 -274 33 -29 c18
-17 49 -31 72 -35 l40 -7 0 -64 c0 -70 13 -104 57 -146 39 -36 80 -47 180 -47
l83 0 0 -54 0 -54 -142 -4 c-161 -4 -188 -13 -235 -75 -27 -35 -28 -40 -31
-182 l-3 -146 -29 -17 c-16 -9 -41 -35 -57 -59 -26 -39 -28 -52 -31 -153 -5
-131 7 -182 51 -233 34 -38 97 -72 135 -73 l22 0 0 -300 c0 -326 0 -329 57
-382 15 -15 41 -32 56 -37 38 -15 546 -15 584 0 15 5 41 22 56 37 57 53 57 56
57 382 l0 300 850 0 850 0 0 -300 c0 -326 0 -329 57 -382 15 -15 41 -32 56
-37 38 -15 546 -15 584 0 15 5 41 22 56 37 57 53 57 56 57 382 l0 300 23 0
c66 1 157 76 176 147 14 51 14 221 0 264 -15 45 -55 98 -84 111 -23 10 -24 15
-27 158 -3 143 -4 148 -31 183 -47 62 -74 71 -234 75 l-143 4 0 54 0 54 83 0
c100 0 141 11 180 47 44 42 57 76 57 146 l0 64 40 7 c23 4 54 18 72 35 l33 29
3 274 c2 295 1 303 -51 342 -24 18 -46 22 -136 24 -126 4 -170 -9 -201 -60
-19 -31 -20 -50 -20 -293 0 -240 2 -262 20 -292 22 -37 41 -48 93 -58 37 -7
37 -8 37 -56 0 -75 -19 -89 -124 -89 l-83 0 -23 63 c-23 62 -29 114 -79 659
-17 185 -19 200 -47 245 -18 29 -49 59 -78 78 l-49 30 -1051 2 c-861 2 -1058
0 -1089 -11z m2148 -139 c26 -26 33 -43 38 -87 16 -139 50 -561 45 -565 -3 -3
-27 5 -54 17 l-49 23 -1055 0 -1055 0 -49 -23 c-27 -12 -51 -20 -54 -17 -5 4
29 426 45 565 5 44 12 61 38 87 l33 33 1042 0 1042 0 33 -33z m-1475 -887 c19
-19 20 -33 20 -245 0 -212 -1 -226 -20 -245 -26 -26 -48 -25 -77 2 -23 21 -23
25 -23 240 l0 219 25 24 c29 30 49 31 75 5z m288 4 c22 -15 22 -19 22 -249 0
-230 0 -234 -22 -249 -29 -20 -41 -20 -68 2 -21 17 -21 23 -21 247 1 221 2
231 22 248 26 21 38 21 67 1z m291 -1 c20 -17 21 -28 22 -246 2 -206 0 -229
-16 -247 -22 -24 -43 -25 -73 -4 -22 15 -22 19 -22 249 0 230 0 234 22 249 29
20 41 20 67 -1z m296 -8 c25 -24 25 -24 25 -235 0 -242 -7 -269 -67 -270 -48
0 -53 27 -53 267 0 210 1 224 20 243 26 26 46 25 75 -5z m-1248 -34 c166 -85
173 -306 13 -407 -38 -24 -56 -29 -110 -29 -231 0 -327 283 -141 417 72 51
162 59 238 19z m1747 4 c53 -25 104 -82 122 -138 59 -176 -104 -347 -283 -296
-70 19 -146 97 -163 167 -45 189 150 349 324 267z m-2314 -485 l0 -130 -151 0
-151 0 4 111 c4 149 5 149 174 149 l124 0 0 -130z m2951 111 c22 -18 24 -28
27 -130 l4 -111 -151 0 -151 0 0 130 0 130 124 0 c107 0 127 -3 147 -19z m110
-390 c28 -29 29 -32 29 -136 0 -99 -2 -107 -25 -130 l-24 -25 -1701 0 -1701 0
-24 25 c-23 23 -25 31 -25 130 0 104 1 107 29 136 l29 29 1692 0 1692 0 29
-29z m-3151 -471 l0 -61 -57 3 -58 3 -3 58 -3 57 61 0 60 0 0 -60z m468 3 l-3
-58 -57 -3 -58 -3 0 61 0 60 60 0 61 0 -3 -57z m2042 -3 l0 -61 -57 3 -58 3
-3 58 -3 57 61 0 60 0 0 -60z m468 3 l-3 -58 -57 -3 -58 -3 0 61 0 60 60 0 61
0 -3 -57z m-2978 -248 l0 -75 -60 0 -60 0 0 75 0 75 60 0 60 0 0 -75z m468 -2
l3 -73 -61 0 -60 0 0 75 0 76 58 -3 57 -3 3 -72z m2042 2 l0 -75 -60 0 -60 0
0 68 c0 38 3 72 7 75 3 4 30 7 60 7 l53 0 0 -75z m470 0 l0 -75 -60 0 -60 0 0
75 0 75 60 0 60 0 0 -75z m-2980 -250 l0 -55 -44 0 c-52 0 -76 24 -76 77 l0
33 60 0 60 0 0 -55z m467 15 c-7 -56 -22 -70 -73 -70 l-44 0 0 55 0 55 61 0
62 0 -6 -40z m2043 -15 l0 -55 -44 0 c-51 0 -66 14 -73 70 l-6 40 62 0 61 0 0
-55z m470 22 c0 -53 -24 -77 -76 -77 l-44 0 0 55 0 55 60 0 60 0 0 -33z"/>
</g>
</svg>
